/* XPM */
static char * wall_xpm[] = {
"81 112 16 1",
" 	c #78C6A1",
".	c #4EAE89",
"+	c #77C5A0",
"@	c #8FD6B9",
"#	c #3A5717",
"$	c #BBF68F",
"%	c #408E37",
"&	c #85CE67",
"*	c #A5DFC1",
"=	c #78C5A1",
"-	c #408D37",
";	c #84CD66",
">	c #395617",
",	c #309E6A",
"'	c #3F3831",
")	c #6F6060",
"                                                                                 ",
"                                                                                 ",
"                                                                                 ",
"                                                                                 ",
"                                                                                 ",
"                                                                                 ",
"                                                                                 ",
"                                                                                 ",
"                                                                                 ",
"                                                                                 ",
" @@                                                                              ",
" @@                                                                              ",
"@                                    ####                                        ",
"@                                    ####                                        ",
"                                   ##$$$$##                                      ",
"                                   ##$$$$##                                      ",
"                                   %%$$$$%%                                      ",
"                                   %%$$$$%%                                      ",
"                                 ##&&$$$$&&##                                    ",
"                                 ##&&$$$$&&##                                    ",
"                             %%%%%%$$$$$$&&%%%%%%                                ",
"                             %%%%%%$$$$$$&&%%%%%%                                ",
"                         %%%%$$$$&&$$$$$$&&&&$$$$%%%%                            ",
"                         %%%%$$$$&&$$$$$$&&&&$$$$%%%%                            ",
"                         %%&&&&$$&&$$$$$$&&&&&&&&&&%%                            ",
"                         %%&&&&$$&&$$$$$$&&&&&&&&&&%%                            ",
"                       **%%$$$$&&$$$$$$$$&&$$&&&&$$%%                            ",
"                       **%%$$$$&&$$$$$$$$&&$$&&&&$$%%                            ",
"                   %%%%&&$$&&&&$$$$$$$$$$$$$$$$$$&&$$&&%%%%                      ",
"                   %%%%&&$$&&&&$$$$$$$$$$$$$$$$$$&&$$&&%%%%                      ",
"                   %%&&%%%%&&$$$$$$$$$$$$$$$$$$&&$$%%%%&&%%                      ",
"                   %%&&%%%%&&$$$$$$$$$$$$$$$$$$&&$$%%%%&&%%                      ",
"                 ##$$$$%%&&$$$$$$$$$$$$$$$$$$&&$$&&&&%%$$$$##                    ",
"                 ##$$$$%%&&$$$$$$$$$$$$$$$$$$&&$$&&&&%%$$$$##                    ",
"+                  %%%%&&$$$$&&$$$$$$$$$$$$$$$$&&$$$$&&%%%%                      ",
"+                  %%%%&&$$$$&&$$$$$$$$$$$$$$$$&&$$$$&&%%%%                      ",
"               ##&&$$$$%%$$%%$$$$$$$$$$$$$$$$&&$$%%$$%%$$$$&&##                  ",
"               ##&&$$$$%%$$%%$$$$$$$$$$$$$$$$&&$$%%$$%%$$$$&&##                  ",
"               ##$$$$%%&&%%$$$$$$$$%%$$$$%%$$&&$$$$%%&&%%$$$$##                  ",
"               ##$$$$%%&&%%$$$$$$$$%%$$$$%%$$&&$$$$%%&&%%$$$$##                  ",
"                 %%&&$$$$%%$$&&&&$$&&$$$$&&$$$$&&%%&&&&$$&&%%                    ",
"                 %%&&$$$$%%$$&&&&$$&&$$$$&&$$$$&&%%&&&&$$&&%%                    ",
"               ##$$$$$$&&&&%%%%%%&&$$$$$$$$$$&&%%%%&&&&$$$$$$##  @@              ",
"               ##$$$$$$&&&&%%%%%%&&$$$$$$$$$$&&%%%%&&&&$$$$$$##  @@              ",
"           ######$$$$&&%%&&$$$$&&%%$$&&&&$$%%%%&&&&&&%%&&$$$$######              ",
"           ######$$$$&&%%&&$$$$&&%%$$&&&&$$%%%%&&&&&&%%&&$$$$######              ",
"           ##&&&&##&&##$$$$$$$$&&&&%%%%%%%%&&&&&&$$&&$$##&&##&&&&##              ",
"           ##&&&&##&&##$$$$$$$$&&&&%%%%%%%%&&&&&&$$&&$$##&&##&&&&##              ",
"@            %%&&##%%$$$$$$$$$$&&$$%%&&&&%%&&&&$$&&$$&&$$%%##&&%%                ",
"@            %%&&##%%$$$$$$$$$$&&$$%%&&&&%%&&&&$$&&$$&&$$%%##&&%%                ",
"@    @@    ##&&%%%%##$$%%$$$$&&$$$$$$$$$$$$&&$$&&$$&&$$$$##%%%%&&##              ",
"@    @@    ##&&%%%%##$$%%$$$$&&$$$$$$$$$$$$&&$$&&$$&&$$$$##%%%%&&##              ",
"   @@      %%%%%%&&%%%%$$$$%%$$$$$$&&$$$$&&$$&&$$%%$$$$%%%%&&%%%%%%              ",
"   @@      %%%%%%&&%%%%$$$$%%$$$$$$&&$$$$&&$$&&$$%%$$$$%%%%&&%%%%%%              ",
"           ##%%&&&&&&%%%%%%%%$$$$$$$$$$$$$$$$$$$$%%%%%%%%&&&&&&%%##              ",
"           ##%%&&&&&&%%%%%%%%$$$$$$$$$$$$$$$$$$$$%%%%%%%%&&&&&&%%##              ",
"         ####&&&&&&%%&&&&&&%%%%$$%%$$$$$$$$%%$$%%%%&&&&&&%%&&&&&&####            ",
"         ####&&&&&&%%&&&&&&%%%%$$%%$$$$$$$$%%$$%%%%&&&&&&%%&&&&&&####            ",
"         %%&&%%&&%%&&&&&&&&%%%%##&&$$&&&&$$&&##%%%%&&&&&&&&%%&&%%&&%%            ",
"         %%&&%%&&%%&&&&&&&&%%%%##&&$$&&&&$$&&##%%%%&&&&&&&&%%&&%%&&%%            ",
"         ##%%##%%%%&&&&%%&&&&%%%%%%&&&&&&&&%%%%%%&&&&%%&&&&%%%%##%%##            ",
"         ##%%##%%%%&&&&%%&&&&%%%%%%&&&&&&&&%%%%%%&&&&%%&&&&%%%%##%%##            ",
"         ##%%####%%&&%%&&&&&&&&%%&&%%%%%%%%&&%%&&&&&&&&%%&&%%####%%##            ",
"         ##%%####%%&&%%&&&&&&&&%%&&%%%%%%%%&&%%&&&&&&&&%%&&%%####%%##            ",
".          ##&&%%##%%&&&&&&&&%%&&&&%%&&&&%%&&&&%%&&&&&&&&%%##%%&&##              ",
".          ##&&%%##%%&&&&&&&&%%&&&&%%&&&&%%&&&&%%&&&&&&&&%%##%%&&##              ",
".        ##&&%%%%########&&%%%%&&&&%%&&&&%%&&&&%%--&&########%%%%&&##            ",
".        ##&&%%%%########&&%%%%&&&&%%&&&&%%&&&&%%--&&########%%%%&&##            ",
"         ##%%%%%%%%%%%%####%%&&&&%%&&%%%%&&%%&&&&%%####%%%%%%%%%%%%##            ",
"         ##%%%%%%%%%%%%####%%&&&&%%&&%%%%&&%%&&&&%%####%%%%%%%%%%%%##            ",
"         ##%%%%##%%%%%%######&&&&%%&&&&&&&&%%;;&&######%%%%%%##%%%%##            ",
"         ##%%%%##%%%%%%######&&&&%%&&&&&&&&%%;;&&######%%%%%%##%%%%##            ",
"           ####%%%%##%%%%%%##########&&&&########>>%%%%%%##%%%%####              ",
"           ####%%%%##%%%%%%##########&&&&########>>%%%%%%##%%%%####              ",
"             ##%%##%%%%%%%%%%%%%%############%%%%%%%%%%%%%%##%%##..              ",
"             ##%%##%%%%%%%%%%%%%%############%%%%%%%%%%%%%%##%%##..              ",
"             ######%%%%%%%%##%%%%%%%%%%%%%%%%%%%%##%%%%%%%%######                ",
"             ######%%%%%%%%##%%%%%%%%%%%%%%%%%%%%##%%%%%%%%######                ",
"             ,,%%##%%%%%%##%%%%%%##%%%%%%%%##%%%%%%##%%%%%%##%%,,                ",
"             ,,%%##%%%%%%##%%%%%%##%%%%%%%%##%%%%%%##%%%%%%##%%,,                ",
"           ,,%%%%%%####%%##%%%%####%%%%%%%%####%%%%##%%####%%%%%%,,              ",
"           ,,%%%%%%####%%##%%%%####%%%%%%%%####%%%%##%%####%%%%%%,,              ",
"         ,,%%%%%%%%##########%%######%%%%######%%##########%%%%%%%%,,            ",
"         ,,%%%%%%%%##########%%######%%%%######%%##########%%%%%%%%,,            ",
"         ,,%%%%%%##############''####%%%%####''##############%%%%%%,,            ",
"         ,,%%%%%%##############''####%%%%####''##############%%%%%%,,            ",
"         ,,%%%%%%##############''))))####))))''##############%%%%%%,,            ",
"         ,,%%%%%%##############''))))####))))''##############%%%%%%,,            ",
"         ,,%%%%%%##############''))))))))))))''##############%%%%%%,,            ",
"         ,,%%%%%%##############''))))))))))))''##############%%%%%%,,            ",
"         ,,%%%%%%%%##############''))))))))''##############%%%%%%%%,,            ",
"         ,,%%%%%%%%##############''))))))))''##############%%%%%%%%,,            ",
"         ..,,%%%%%%%%##############''''''''##############%%%%%%%%,,..            ",
"         ..,,%%%%%%%%##############''''''''##############%%%%%%%%,,..            ",
"           ..,,%%%%%%%%%%############################%%%%%%%%%%,,..              ",
"           ..,,%%%%%%%%%%############################%%%%%%%%%%,,..              ",
"             ..,,,,%%%%%%%%%%####################%%%%%%%%%%,,,,..                ",
"             ..,,,,%%%%%%%%%%####################%%%%%%%%%%,,,,..                ",
"                 ..,,,,,,%%%%%%%%%%%%%%%%%%%%%%%%%%%%,,,,,,..                    ",
"                 ..,,,,,,%%%%%%%%%%%%%%%%%%%%%%%%%%%%,,,,,,..                    ",
"                     ....,,,,,,%%%%%%%%%%%%%%%%,,,,,,....                        ",
"                     ....,,,,,,%%%%%%%%%%%%%%%%,,,,,,....                        ",
"                                                                                 ",
"                                                                                 ",
"                                                                                 ",
"                                                                                 ",
" @@                                                                              ",
" @@                                                                              ",
"@                ..                                                              ",
"@                ..                                                              ",
"           ..    ..    ..                                                        ",
"           ..    ..    ..                                                        "};
